<svg width="170" height="33" viewBox="0 0 170 33" fill="none" xmlns="http://www.w3.org/2000/svg">
<path d="M44.0929 11.1545C42.5794 11.0747 41.2353 11.8251 40.4774 12.9883C39.7859 14.0467 38.5518 14.6283 37.2833 14.6283H33.9265C32.658 14.6283 31.4216 14.0467 30.7301 12.9883C29.9699 11.8251 28.6259 11.0724 27.1124 11.1545C25.031 11.2663 23.3229 13.0294 23.284 15.1072C23.2405 17.3698 25.0745 19.2242 27.3368 19.2242C28.5984 19.2242 29.7249 18.6471 30.4668 17.7416C31.1308 16.9342 32.1635 16.5168 33.2122 16.5168H37.9931C39.0418 16.5168 40.0744 16.9342 40.7384 17.7416C41.4803 18.6448 42.6068 19.2242 43.8685 19.2242C46.1307 19.2242 47.9648 17.3698 47.9213 15.1072C47.88 13.0294 46.1742 11.2686 44.0906 11.1568L44.0929 11.1545ZM27.3345 17.3356C26.1438 17.3356 25.1776 16.3708 25.1776 15.1871C25.1776 14.0033 26.1461 13.0362 27.3345 13.0362C28.5228 13.0362 29.4937 14.001 29.4937 15.1871C29.4937 16.3731 28.5251 17.3356 27.3345 17.3356ZM43.8685 17.3356C42.6778 17.3356 41.7116 16.3708 41.7116 15.1871C41.7116 14.0033 42.6801 13.0362 43.8685 13.0362C45.0568 13.0362 46.0277 14.001 46.0277 15.1871C46.0277 16.3731 45.0591 17.3356 43.8685 17.3356Z" fill="#1BA019"/>
<path d="M11.4745 16.7958C12.0492 16.7958 12.5049 16.2849 12.4087 15.6941C12.3331 15.2311 11.8958 14.9095 11.4241 14.9095H10.3319C9.14587 14.9095 8.0926 14.2595 7.4469 13.2696C6.68672 12.1064 5.34266 11.3537 3.82916 11.4358C1.74781 11.5476 0.0396834 13.3106 0.000758292 15.3885C-0.0427462 17.6511 1.79132 19.5054 4.05355 19.5054C5.31518 19.5054 6.44172 18.9284 7.18359 18.0229C7.79494 17.277 8.67419 16.7981 9.64045 16.7981H11.4745V16.7958ZM4.05355 17.6146C2.8629 17.6146 1.89435 16.6498 1.89435 15.466C1.89435 14.2823 2.8629 13.3152 4.05355 13.3152C5.2442 13.3152 6.21046 14.28 6.21046 15.466C6.21046 16.6521 5.24191 17.6146 4.05355 17.6146Z" fill="#1BA019"/>
<path d="M24.8414 7.54897C26.7785 7.54897 28.6881 8.21498 30.2176 9.4261C30.7626 9.85718 31.5571 9.76823 31.9921 9.22311C32.4249 8.67799 32.3356 7.88654 31.7883 7.45546C29.8146 5.89308 27.3463 5.0332 24.8414 5.0332C18.6889 5.0332 13.6836 10.0191 13.6836 16.1477C13.6836 22.2764 18.6889 27.2623 24.8414 27.2623C28.0309 27.2623 31.0717 25.9052 33.1828 23.5377C33.6453 23.0176 33.5995 22.2239 33.0775 21.7609C32.5554 21.2979 31.7586 21.3481 31.2938 21.8658C29.6612 23.695 27.3097 24.7465 24.8414 24.7465C20.081 24.7465 16.2091 20.8896 16.2091 16.1477C16.2091 11.4059 20.081 7.54897 24.8414 7.54897Z" fill="#1BA019"/>
<path d="M39.665 18.4399C38.9895 18.278 38.3049 18.6908 38.14 19.3659C36.6494 25.4968 31.1839 29.7803 24.8437 29.7803C18.5035 29.7803 12.9784 25.4581 11.5244 19.2701C11.3664 18.5927 10.6841 18.1731 10.0063 18.3327C9.3263 18.4924 8.905 19.1675 9.06528 19.8449C10.7894 27.1778 17.2785 32.2983 24.8437 32.2983C32.4089 32.2983 38.8315 27.2234 40.5969 19.959C40.7618 19.2838 40.345 18.6041 39.6673 18.4399H39.665Z" fill="#1BA019"/>
<path d="M10.2133 12.8389C10.3393 12.8799 10.4698 12.8982 10.5957 12.8982C11.1315 12.8982 11.6284 12.556 11.8001 12.02C13.6113 6.33618 18.8524 2.51805 24.8446 2.51805C30.8368 2.51805 35.8215 6.16968 37.7494 11.6049C37.7631 11.6505 37.7769 11.6962 37.7906 11.7395C38.0196 12.3941 38.7386 12.7408 39.4003 12.5104C40.0597 12.2823 40.4055 11.5616 40.1765 10.9047C40.1628 10.8591 40.149 10.8135 40.133 10.7656C37.8479 4.32676 31.7023 0 24.8423 0C17.9823 0 11.5368 4.52519 9.39131 11.2582C9.18066 11.9197 9.5493 12.629 10.2133 12.8389Z" fill="#1BA019"/>
<path d="M65.4977 24.9443C63.8239 24.9443 62.3401 24.5725 61.0487 23.8267C59.7573 23.0808 58.7407 22.0453 58.0011 20.7179C57.2616 19.3904 56.8906 17.8668 56.8906 16.1516C56.8906 14.904 57.1104 13.7522 57.5501 12.6893C57.9897 11.6287 58.6056 10.705 59.4024 9.92037C60.1993 9.13576 61.1335 8.52449 62.2073 8.08657C63.2812 7.64865 64.4421 7.42969 65.6946 7.42969C66.947 7.42969 68.0873 7.67602 69.2184 8.17096C69.7313 8.39448 70.2007 8.65906 70.6243 8.96241C71.4303 9.53947 71.5265 10.7027 70.8602 11.4371L70.7709 11.5352C70.2122 12.1487 69.2734 12.2924 68.5933 11.8135C68.3461 11.6378 68.0896 11.485 67.8286 11.3527C67.1691 11.022 66.4502 10.8555 65.6694 10.8555C64.742 10.8555 63.8971 11.079 63.1324 11.5238C62.3676 11.9686 61.7586 12.5935 61.3029 13.3941C60.8472 14.1947 60.6206 15.123 60.6206 16.1744C60.6206 17.2259 60.845 18.1998 61.2915 18.9913C61.7379 19.785 62.3653 20.4008 63.169 20.8365C63.9727 21.2744 64.9115 21.4934 65.9854 21.4934C66.7662 21.4934 67.5012 21.336 68.1926 21.0189C68.3529 20.946 68.5063 20.8684 68.6552 20.784C69.4543 20.3347 70.4595 20.5536 70.9495 21.3246C71.4646 22.1343 71.199 23.2085 70.3633 23.6852C70.2946 23.724 70.2259 23.7628 70.1549 23.7993C69.4886 24.1551 68.7536 24.4356 67.9476 24.6364C67.144 24.8394 66.3265 24.9397 65.4977 24.9397V24.9443Z" fill="black"/>
<path d="M78.2509 24.9429C77.177 24.9429 76.2108 24.6509 75.3498 24.0693C74.4889 23.4854 73.8043 22.6894 73.3005 21.6767C72.7968 20.664 72.5449 19.519 72.5449 18.2395C72.5449 16.9599 72.8014 15.7944 73.312 14.7908C73.8249 13.7873 74.5187 13.0027 75.3979 12.4347C76.2749 11.8691 77.2755 11.584 78.3974 11.584C79.2904 11.584 80.0758 11.7619 80.7512 12.1177C81.0695 12.2865 81.3603 12.4804 81.6236 12.6993C81.9305 12.9548 82.3976 12.7267 82.3976 12.3275C82.3976 12.0652 82.6128 11.8508 82.8761 11.8508H85.3582C85.6215 11.8508 85.8367 12.0652 85.8367 12.3275V24.2244C85.8367 24.4867 85.6215 24.7011 85.3582 24.7011H82.828C82.5647 24.7011 82.3495 24.4867 82.3495 24.2244V24.1469C82.3495 23.7477 81.8915 23.5287 81.5778 23.7751C81.2848 24.0054 80.9619 24.213 80.6047 24.3955C79.8972 24.7604 79.1141 24.9429 78.2509 24.9429ZM79.2011 21.955C80.1765 21.955 80.9596 21.6151 81.5549 20.9354C82.148 20.2557 82.4456 19.3571 82.4456 18.2395C82.4456 17.1219 82.148 16.2483 81.5549 15.5686C80.9619 14.8889 80.1765 14.5491 79.2011 14.5491C78.2257 14.5491 77.4655 14.8889 76.8725 15.5686C76.2794 16.2483 75.9818 17.1401 75.9818 18.2395C75.9818 19.3388 76.2772 20.2557 76.8725 20.9354C77.4655 21.6151 78.2417 21.955 79.2011 21.955Z" fill="black"/>
<path d="M88.3949 24.1775V12.3673C88.3949 12.0799 88.6284 11.8473 88.9169 11.8473H91.2135C91.4928 11.8473 91.7218 12.0662 91.7333 12.3445C91.7516 12.7619 92.237 12.9968 92.5644 12.7368C92.8506 12.5087 93.1735 12.3057 93.5284 12.1255C94.2519 11.7606 95.0121 11.5781 95.809 11.5781C98.7673 11.5781 100.246 13.3275 100.246 16.8241V24.1752C100.246 24.4626 100.013 24.6952 99.7244 24.6952H97.3041C97.0156 24.6952 96.7821 24.4626 96.7821 24.1752V17.0909C96.7821 15.3255 96.0425 14.4771 94.5634 14.5409C93.7826 14.5409 93.1369 14.7759 92.624 15.2457C92.1111 15.7156 91.8569 16.2903 91.8569 16.97V24.1752C91.8569 24.4626 91.6234 24.6952 91.3349 24.6952H88.9146C88.6261 24.6952 88.3926 24.4626 88.3926 24.1752L88.3949 24.1775Z" fill="black"/>
<path d="M102.66 24.1775V12.3673C102.66 12.0799 102.894 11.8473 103.183 11.8473H105.479C105.758 11.8473 105.987 12.0662 105.999 12.3445C106.017 12.7619 106.503 12.9968 106.83 12.7368C107.116 12.5087 107.439 12.3057 107.794 12.1255C108.518 11.7606 109.278 11.5781 110.075 11.5781C113.033 11.5781 114.512 13.3275 114.512 16.8241V24.1752C114.512 24.4626 114.278 24.6952 113.99 24.6952H111.57C111.281 24.6952 111.048 24.4626 111.048 24.1752V17.0909C111.048 15.3255 110.308 14.4771 108.829 14.5409C108.048 14.5409 107.402 14.7759 106.89 15.2457C106.377 15.7156 106.123 16.2903 106.123 16.97V24.1752C106.123 24.4626 105.889 24.6952 105.6 24.6952H103.18C102.892 24.6952 102.658 24.4626 102.658 24.1752L102.66 24.1775Z" fill="black"/>
<path d="M117.25 24.4341V12.5897C117.25 12.3114 117.477 12.0879 117.754 12.0879H120.208C120.488 12.0879 120.712 12.3137 120.712 12.5897V24.4341C120.712 24.7123 120.485 24.9359 120.208 24.9359H117.754C117.474 24.9359 117.25 24.7101 117.25 24.4341Z" fill="black"/>
<path d="M124.728 24.4449V15.1916C124.728 15.0502 124.613 14.9361 124.471 14.9361H122.571C122.429 14.9361 122.314 14.8221 122.314 14.6807V12.1079C122.314 11.9665 122.429 11.8524 122.571 11.8524H124.471C124.613 11.8524 124.728 11.7384 124.728 11.597V8.85311C124.728 8.7117 124.842 8.59766 124.984 8.59766H127.933C128.075 8.59766 128.19 8.7117 128.19 8.85311V11.597C128.19 11.7384 128.304 11.8524 128.446 11.8524H130.592C130.734 11.8524 130.848 11.9665 130.848 12.1079V14.6807C130.848 14.8221 130.734 14.9361 130.592 14.9361H128.446C128.304 14.9361 128.19 15.0502 128.19 15.1916V24.4449C128.19 24.5864 128.075 24.7004 127.933 24.7004H124.984C124.842 24.7004 124.728 24.5864 124.728 24.4449Z" fill="black"/>
<path d="M138.187 24.9445C136.788 24.9445 135.566 24.6617 134.517 24.0938C133.468 23.5281 132.655 22.7504 132.078 21.7627C131.501 20.7751 131.213 19.6416 131.213 18.362C131.213 17.0825 131.492 15.8599 132.056 14.8404C132.616 13.8209 133.393 13.0226 134.384 12.4478C135.376 11.873 136.504 11.5765 137.773 11.5605C138.943 11.5765 139.987 11.8593 140.905 12.4113C141.823 12.961 142.542 13.7182 143.064 14.683C143.584 15.6455 143.829 16.7426 143.795 17.9743C143.781 18.5696 143.293 19.044 142.698 19.044H135.192C134.876 19.044 134.647 19.3633 134.767 19.6553C135.005 20.2483 135.385 20.7409 135.907 21.1332C136.598 21.651 137.48 21.911 138.551 21.911C139.122 21.911 139.641 21.8221 140.113 21.6441C140.333 21.562 140.56 21.4503 140.791 21.3111C141.285 21.0169 141.922 21.1378 142.258 21.6031L142.661 22.1642C143.028 22.6728 142.89 23.3867 142.362 23.7243C141.894 24.0231 141.398 24.2694 140.869 24.461C139.976 24.7849 139.08 24.9468 138.185 24.9468L138.187 24.9445ZM137.821 14.5234C136.596 14.5234 135.708 14.8997 135.153 15.6524C134.764 16.1815 135.137 16.9296 135.797 16.9296H140.53V16.8316C140.482 16.1678 140.2 15.6182 139.689 15.1802C139.177 14.7423 138.556 14.5234 137.823 14.5234H137.821Z" fill="black"/>
<path d="M151.063 24.9432C149.827 24.9432 148.723 24.6513 147.748 24.0696C146.772 23.488 146.005 22.6943 145.444 21.6884C144.883 20.6849 144.602 19.5422 144.602 18.2626C144.602 16.9831 144.881 15.8426 145.444 14.8368C146.005 13.8332 146.772 13.0395 147.748 12.4556C148.723 11.8717 149.829 11.582 151.063 11.582C152.217 11.582 153.273 11.7919 154.232 12.2138C154.658 12.4009 155.043 12.6198 155.386 12.8707C156.064 13.3679 156.153 14.351 155.615 14.9965L155.585 15.0307C155.084 15.6328 154.216 15.724 153.563 15.2884C153.447 15.2108 153.323 15.1356 153.195 15.0672C152.618 14.7524 152.013 14.5927 151.379 14.5927C150.713 14.5927 150.124 14.7501 149.611 15.0672C149.099 15.3819 148.698 15.8153 148.405 16.3672C148.112 16.9169 147.965 17.5487 147.965 18.2626C147.965 18.9765 148.116 19.5627 148.416 20.1215C148.716 20.6803 149.126 21.1182 149.648 21.433C150.168 21.7477 150.754 21.9074 151.404 21.9074C152.055 21.9074 152.62 21.7705 153.147 21.4946C153.286 21.4216 153.422 21.3418 153.554 21.2528C154.202 20.8194 155.068 20.9289 155.562 21.5288C156.13 22.2199 155.959 23.2371 155.212 23.7298C154.894 23.9396 154.543 24.1289 154.159 24.2977C153.183 24.7265 152.151 24.9409 151.063 24.9409V24.9432Z" fill="black"/>
<path d="M157.768 23.9926V8.05862C157.768 7.6686 158.097 7.35156 158.503 7.35156H160.447C160.852 7.35156 161.182 7.6686 161.182 8.05862V12.3101C161.182 12.8666 161.827 13.2156 162.308 12.9077C162.505 12.78 162.716 12.6636 162.938 12.5564C163.652 12.212 164.401 12.041 165.182 12.041C168.14 12.041 169.619 13.7288 169.619 17.1044V23.9926C169.619 24.3826 169.289 24.6996 168.884 24.6996H166.892C166.487 24.6996 166.157 24.3826 166.157 23.9926V17.3622C166.157 15.6584 165.418 14.8396 163.938 14.9011C163.158 14.9011 162.512 15.127 161.999 15.5808C161.486 16.0347 161.232 16.589 161.232 17.2459V23.9926C161.232 24.3826 160.902 24.6996 160.497 24.6996H158.505C158.1 24.6996 157.77 24.3826 157.77 23.9926H157.768Z" fill="black"/>
<path d="M118.954 11.0941C118.288 11.0941 117.768 10.9322 117.395 10.6083C117.022 10.2844 116.834 9.82367 116.834 9.2238C116.834 8.67412 117.024 8.2248 117.406 7.87583C117.789 7.52686 118.304 7.35352 118.954 7.35352C119.605 7.35352 120.14 7.52002 120.516 7.85074C120.889 8.18374 121.077 8.63991 121.077 9.2238C121.077 9.8077 120.887 10.2433 120.504 10.5832C120.122 10.923 119.607 11.0941 118.957 11.0941H118.954Z" fill="black"/>
</svg>
